<?xml version="1.0" encoding="utf-8"?>
<!-- Generator: Adobe Illustrator 16.0.0, SVG Export Plug-In . SVG Version: 6.00 Build 0)  -->
<!DOCTYPE svg PUBLIC "-//W3C//DTD SVG 1.1//EN" "http://www.w3.org/Graphics/SVG/1.1/DTD/svg11.dtd">
<svg version="1.1" id="Layer_1" xmlns="http://www.w3.org/2000/svg" xmlns:xlink="http://www.w3.org/1999/xlink" x="0px" y="0px"
	 width="105.217px" height="109.564px" viewBox="0 0 105.217 109.564" enable-background="new 0 0 105.217 109.564"
	 xml:space="preserve">
<g opacity="0.5">
	<g>
		<defs>
			<rect id="SVGID_1_" x="6.037" y="7.851" width="95.159" height="95.16"/>
		</defs>
		<clipPath id="SVGID_2_">
			<use xlink:href="#SVGID_1_"  overflow="visible"/>
		</clipPath>
		<path clip-path="url(#SVGID_2_)" fill="#AFAFAF" d="M53.619,7.851c-26.276,0-47.579,21.303-47.579,47.58
			c0,26.276,21.303,47.58,47.579,47.58c26.277,0,47.58-21.304,47.58-47.58C101.199,29.154,79.896,7.851,53.619,7.851 M66.731,36.96
			h-6.912c-1.135,0-2.73,0.566-2.73,2.979v6.435h9.617l-1.127,10.922h-8.49v31.102H44.228V57.295H38.11V46.36h6.117v-7.071
			c0-5.058,2.401-12.979,12.979-12.979l9.525,0.041V36.96z"/>
	</g>
</g>
</svg>
