<?xml version="1.0" encoding="utf-8"?>
<!-- Generator: Adobe Illustrator 16.0.0, SVG Export Plug-In . SVG Version: 6.00 Build 0)  -->
<!DOCTYPE svg PUBLIC "-//W3C//DTD SVG 1.1//EN" "http://www.w3.org/Graphics/SVG/1.1/DTD/svg11.dtd">
<svg version="1.1" id="Layer_1" xmlns="http://www.w3.org/2000/svg" xmlns:xlink="http://www.w3.org/1999/xlink" x="0px" y="0px"
	 width="790.606px" height="420.869px" viewBox="0 0 790.606 420.869" enable-background="new 0 0 790.606 420.869"
	 xml:space="preserve">
<path fill="#95D600" d="M27.743,410.829C236.501,178.408,608.483,49.616,716.584,49.616
	C556.202,49.616,180.28,155.831,27.743,410.829"/>
<path fill="#95D600" d="M724.173,51.56c0.606-0.163,1.253-0.333,1.93-0.519c0.671-0.198,1.354-0.429,2.075-0.663
	c0.72-0.235,1.472-0.462,2.238-0.733c0.763-0.286,1.551-0.585,2.361-0.888c0.402-0.154,0.812-0.311,1.223-0.467
	c0.406-0.175,0.823-0.35,1.238-0.531c0.831-0.36,1.684-0.717,2.535-1.108c1.688-0.827,3.445-1.634,5.153-2.613
	c1.738-0.908,3.417-1.992,5.114-3.017c1.644-1.125,3.309-2.194,4.846-3.395c1.584-1.133,3.032-2.39,4.46-3.557
	c0.696-0.606,1.362-1.228,2.023-1.821c0.327-0.294,0.651-0.592,0.971-0.884c0.309-0.302,0.614-0.604,0.913-0.904
	c0.598-0.59,1.177-1.171,1.739-1.729c0.551-0.571,1.055-1.148,1.553-1.684c0.489-0.546,0.976-1.054,1.411-1.563
	c0.425-0.512,0.829-1,1.208-1.457c0.382-0.458,0.735-0.885,1.062-1.283c0.319-0.4,0.594-0.782,0.854-1.121
	c0.598-0.8,1.046-1.392,1.312-1.749L779.15,9.82c-0.735,3.749-11.647,56.457-45.009,51.413c0,0-7.56-1.688-11.86-8.042
	c-0.131-0.198-0.271-0.402-0.412-0.606c-0.084-0.123-0.159-0.252-0.238-0.371c0.259-0.062,0.538-0.121,0.836-0.196
	C722.994,51.877,723.564,51.725,724.173,51.56"/>
<path fill="#95D600" d="M779.15,9.816c-2.237,2.565-5.922,6.791-8.695,9.977c0.152-0.202,0.233-0.311,0.233-0.311
	s-0.673,0.702-1.851,1.927c-0.298,0.302-0.614,0.648-0.977,1.004c-0.373,0.35-0.771,0.731-1.2,1.138
	c-0.43,0.404-0.884,0.833-1.365,1.288c-0.485,0.444-1.023,0.888-1.569,1.365c-0.552,0.465-1.11,0.971-1.715,1.457
	c-0.614,0.483-1.25,0.975-1.9,1.486c-0.327,0.252-0.652,0.51-0.989,0.769c-0.347,0.242-0.696,0.49-1.051,0.742
	c-0.708,0.496-1.423,1.017-2.163,1.519c-1.521,0.962-3.055,1.994-4.705,2.9c-1.604,0.969-3.325,1.796-5.005,2.669
	c-1.733,0.779-3.438,1.606-5.183,2.261c-1.712,0.725-3.459,1.279-5.119,1.865c-0.842,0.265-1.68,0.5-2.488,0.74
	c-0.406,0.123-0.809,0.24-1.204,0.354c-0.4,0.1-0.8,0.2-1.192,0.296c-0.779,0.191-1.542,0.377-2.275,0.556
	c-0.741,0.167-1.463,0.286-2.146,0.427c-0.688,0.125-1.351,0.271-1.972,0.371c-0.617,0.089-1.202,0.173-1.75,0.252
	c-0.546,0.079-1.062,0.152-1.538,0.221c-0.485,0.065-0.969,0.1-1.388,0.146c-0.5,0.048-0.926,0.094-1.292,0.127
	c-0.346-1.45-0.529-2.921-0.564-4.384c-0.19-7.649,3.733-15.093,10.564-19.014c1.735-0.994,3.659-1.771,5.753-2.255
	c3.28-0.763,6.984-1.321,11.169-1.592c30.077-1.955,33.619-8.517,33.619-8.517S779.176,9.683,779.15,9.816"/>
<path fill="#002856" d="M32.115,246.749h74.553c14.445,0,21.669-7.223,21.669-21.667V119.765H66.361v30.156h26.367v66.372H46.511
	V40.062h46.216v41.975h35.609V31.425c0-14.546-7.224-21.823-21.669-21.823H32.569c-14.345,0-21.517,7.277-21.517,21.823v193.657
	C11.052,239.526,18.072,246.749,32.115,246.749"/>
<path fill="#002856" d="M166.644,246.749H226.5c13.033,0,19.548-6.314,19.548-18.941v-31.973h-33.187v25.457H180.28v-42.883h56.221
	l9.547-9.546v-56.219c0-12.625-6.515-18.941-19.548-18.941h-59.856c-13.033,0-19.547,6.316-19.547,18.941v115.165
	C147.097,240.435,153.61,246.749,166.644,246.749 M180.28,119.161h32.581v36.669H180.28V119.161z"/>
<path fill="#002856" d="M298.144,123.251l32.58-0.604v124.104h34.547v-123.5l32.581-0.604v124.104h34.397V111.736
	c0-12.427-6.313-18.639-18.941-18.639c-5.959,0-14.547,0.91-25.762,2.728c-8.484,1.415-16.969,2.777-25.455,4.09
	c-2.327-4.545-7.479-6.818-15.455-6.818c-6.468,0-14.602,0.758-24.397,2.273c-7.981,1.315-16.012,2.625-24.094,3.938v-5.607h-34.701
	v153.049h34.701V123.251z"/>
<path fill="#002856" d="M516.319,277.511h-8.256h-23.112v-10.84v-7.497h-33.488v14.51v10.039c0,2.608,0.349,4.878,0.902,6.945
	c2.134,7.955,8.302,11.996,18.646,11.996h60.31c13.032,0,19.548-6.314,19.548-18.941V93.704h-34.549v5.607
	c-21.923-4.145-35.057-6.213-39.399-6.213c-8.688,0-15.505,2.523-20.456,7.576c-4.948,5.051-7.424,11.971-7.424,20.76v93.646
	c0,9.596,2.854,17.124,8.56,22.577c5.707,5.455,13.411,8.183,23.111,8.183h35.608V277.511z M516.319,217.957h-21.366
	c-7.677,0-11.52-3.838-11.52-11.512v-73.344c0-7.375,3.738-11.061,11.217-11.061c2.828,0,10.051,0.604,21.669,1.817V217.957z"/>
<path fill="#002856" d="M586.601,247.355c5.351,0,13.182-0.755,23.487-2.27c7.877-1.215,15.758-2.426,23.639-3.639v5.304h33.186
	V112.643c0-12.625-6.414-18.941-19.246-18.941h-58.645c-13.029,0-19.546,6.316-19.546,18.941v28.641h31.369v-21.819h33.184v35.153
	h-46.823c-13.032,0-19.548,6.313-19.548,18.941v55.161C567.657,241.146,573.971,247.355,586.601,247.355 M600.845,178.106h33.184
	v41.064l-33.184,1.213V178.106z"/>
<path fill="#002856" d="M702.642,246.749h58.339c12.832,0,19.245-6.314,19.245-18.941v-37.883c0-7.27-3.536-12.93-10.605-16.972
	l-53.036-31.062v-22.125h30.456v23.64h32.882v-30.762c0-12.625-6.414-18.941-19.243-18.941h-57.734
	c-13.03,0-19.546,6.316-19.546,18.941v35.763c0,6.972,3.486,12.525,10.454,16.67l53.188,31.367v24.245h-30.456v-25.76h-33.186v32.88
	C683.398,240.435,689.812,246.749,702.642,246.749"/>
</svg>
